<?xml version="1.0" encoding="UTF-8" standalone="no"?>
<!-- Created with Inkscape (http://www.inkscape.org/) -->

<svg
   width="170mm"
   height="32mm"
   viewBox="0 0 170 32"
   version="1.1"
   id="svg1"
   xml:space="preserve"
   inkscape:version="1.4.2 (2aeb623e1d, 2025-05-12)"
   sodipodi:docname="Deskwise_logo.svg"
   xmlns:inkscape="http://www.inkscape.org/namespaces/inkscape"
   xmlns:sodipodi="http://sodipodi.sourceforge.net/DTD/sodipodi-0.dtd"
   xmlns="http://www.w3.org/2000/svg"
   xmlns:svg="http://www.w3.org/2000/svg"><sodipodi:namedview
     id="namedview1"
     pagecolor="#ffffff"
     bordercolor="#000000"
     borderopacity="0.25"
     inkscape:showpageshadow="2"
     inkscape:pageopacity="0.0"
     inkscape:pagecheckerboard="0"
     inkscape:deskcolor="#d1d1d1"
     inkscape:document-units="mm"
     inkscape:zoom="0.70710678"
     inkscape:cx="-120.20815"
     inkscape:cy="237.58788"
     inkscape:window-width="1920"
     inkscape:window-height="995"
     inkscape:window-x="0"
     inkscape:window-y="0"
     inkscape:window-maximized="1"
     inkscape:current-layer="svg1" /><defs
     id="defs1" /><g
     inkscape:label="Layer 1"
     id="layer1"
     transform="translate(3.0576174,-52.759005)"><g
       id="g4"
       transform="translate(-10.102788,-38.540266)"><path
         style="fill:#040404;stroke:none;stroke-width:0.140454"
         d="M 8.9633442,92.758656 V 121.7396 c 3.0444468,0 6.0725628,-0.0979 9.1055008,-0.0979 3.235078,0 6.523813,0.1072 9.375996,-1.69921 4.495914,-2.84744 5.79984,-7.87108 5.79984,-12.88918 0,-4.88369 -1.444398,-9.974466 -5.934992,-12.618008 -1.607946,-0.946572 -3.448149,-1.449578 -5.279927,-1.670338 -1.280611,-0.154336 -2.670171,-0.0063 -3.960917,-0.0063 H 8.9633442 m 17.5256418,7.636876 1.663768,-0.697566 1.175582,-0.868979 c 0,0.325399 0.101316,0.852904 -0.04128,1.149557 -0.114366,0.237928 -0.430989,0.391188 -0.644075,0.526228 -0.578862,0.36685 -1.189614,0.62344 -1.852143,0.794 -1.935464,0.49825 -3.78022,0.38851 -5.311505,1.91979 -0.319973,0.31997 -0.749266,0.74072 -0.864859,1.19122 -0.336107,-0.0494 -0.552935,-0.59425 -0.74523,-0.85779 -0.310272,-0.42523 -0.825827,-0.88654 -1.291322,-1.1295 -1.661686,-0.86732 -3.455521,-0.75035 -5.173179,-1.40476 -0.480406,-0.18303 -1.516066,-0.5447 -1.756574,-1.039226 -0.143411,-0.294866 -0.04129,-0.825447 -0.04129,-1.149519 0.289756,0.04222 0.417734,0.299674 0.647776,0.454794 0.551165,0.371651 1.141376,0.769071 1.799939,0.915931 v -2.545624 h 5.042295 c 1.591506,0 3.038001,-0.03207 4.559134,0.469899 0.792673,0.261582 1.323566,0.757129 1.97517,1.232581 0.306609,0.223724 0.800408,0.645144 0.857796,1.038964 m -11.39238,2.47 c 2.395382,-0.57911 4.959387,1.81025 4.829631,4.18604 -0.111907,2.04899 -1.55255,3.52607 -3.486862,3.99371 -2.540451,0.61418 -5.127892,-1.9249 -4.826192,-4.42818 0.238714,-1.98066 1.601073,-3.29649 3.483423,-3.75157 m 9.497137,0 c 2.61865,-0.63308 5.132373,1.98565 4.826192,4.52608 -0.232842,1.93193 -1.666432,3.2144 -3.483424,3.65367 -2.73264,0.66064 -5.190724,-2.17468 -4.721899,-4.76693 0.320533,-1.7723 1.674343,-3.00067 3.379131,-3.41282 m -6.818625,2.91497 h -0.09791 c -0.180581,0.79632 -1.44422,1.06642 -1.56023,0.096 -0.08737,-0.73089 0.431537,-0.60288 0.679053,-1.07506 -0.632938,-0.0411 -1.047892,-0.2484 -1.699463,-0.0758 -0.442422,0.11716 -0.900768,0.36839 -1.151219,0.7612 -0.471512,0.73954 -0.749932,1.75549 -0.270156,2.58306 0.693983,1.19706 2.793941,1.78197 3.770767,0.52419 0.28689,-0.36942 0.454884,-0.71988 0.588093,-1.16989 0.175107,-0.59154 -0.134625,-1.09544 -0.258936,-1.64363 m 5.776609,-0.48954 c -0.115477,0.44851 -0.48434,0.78116 -0.574759,1.28112 -0.08013,0.44306 -0.0048,0.9994 0.192945,1.40158 0.111251,0.22626 0.319764,0.40519 0.381814,0.64619 0.591307,0.15224 0.985611,0.64532 1.666183,0.68249 1.274166,0.0696 2.440689,-1.08629 2.440689,-2.34694 0,-0.39537 -0.20346,-0.79385 -0.288437,-1.1749 h -0.195816 c -0.01202,0.17572 -0.05669,0.27933 -0.179727,0.40776 -0.801035,0.83615 -1.961132,-0.49943 -1.092859,-1.08156 0.128725,-0.0863 0.241154,-0.16883 0.391407,-0.20738 v -0.0979 l -1.264501,-0.18313 -1.476939,0.67267 m -3.084122,4.21007 c 0.253797,0.21073 0.857701,0.92163 0.81685,1.26639 -0.05237,0.44198 -0.549987,0.98981 -0.767895,1.37714 h -0.04895 -0.04895 c -0.171137,-0.30476 -0.8285,-1.1698 -0.751993,-1.50603 0.07537,-0.33124 0.603381,-0.83378 0.800947,-1.1375 m -1.7134,1.95817 c 0.1747,0.68087 0.823447,1.50012 1.209428,2.0937 0.161362,0.24815 0.412139,0.54903 0.455018,0.84356 0.605687,-0.43966 1.007267,-1.45549 1.382922,-2.09352 0.165243,-0.28065 0.403742,-0.51918 0.477342,-0.84374 0.493055,0.0718 0.976856,0.52427 1.476789,0.66307 1.285263,0.35687 2.479961,0.20234 3.712367,-0.27143 -0.07265,0.54915 -0.351822,1.1148 -0.597234,1.6057 -1.939976,3.88058 -6.533579,3.28972 -10.172714,3.28972 h -2.64353 v -4.69961 c 1.229889,0.47125 2.502266,0.30422 3.714105,-0.11777 0.334114,-0.11635 0.642918,-0.4198 0.985509,-0.46968 z"
         id="path1" /><text
         xml:space="preserve"
         style="font-style:normal;font-variant:normal;font-weight:bold;font-stretch:normal;font-size:22.5778px;font-family:'Work Sans';-inkscape-font-specification:'Work Sans Bold';text-align:start;writing-mode:lr-tb;direction:ltr;text-anchor:start;white-space:pre;inline-size:121.374;display:inline;fill:#000000;stroke-width:0.264583"
         x="93.429665"
         y="119.25575"
         id="text2"
         transform="matrix(1.3980286,0,0,1.3980286,-98.151652,-44.985179)"><tspan
           x="93.429665"
           y="119.25575"
           id="tspan1">ESKWISE
</tspan></text></g></g></svg>
